# xmcd CD database file
#
# Track frame offsets:
#	150
#	74995
#	143688
#	148198
#	197533
#	270618
#
# Disc length: 4350 seconds
#
# Revision: 0
# Processed by: cddbd v1.5.1PL0 Copyright (c) Steve Scherf et al.
# Submitted via: CDex 1.51
#
DISCID=6210fc06
DTITLE=Sonny Rollins - Without a Song
DYEAR=2001
DGENRE=Jazz
TTITLE0=Without a Song
TTITLE1=Global Warming
TTITLE2=Introductions
TTITLE3=A Nightingale Sang in Berkeley Square
TTITLE4=Why was I Born?
TTITLE5=Where or When
EXTD=YEAR: 2001
EXTT0=
EXTT1=
EXTT2=
EXTT3=
EXTT4=
EXTT5=
PLAYORDER=
